<svg width="47" height="11" viewBox="0 0 47 11" fill="none" xmlns="http://www.w3.org/2000/svg">
<path d="M0.336 10V9.778H1.416V1.222H0.336V0.999999H6.87V3.46H6.648C6.632 3.032 6.552 2.65 6.408 2.314C6.264 1.974 6.044 1.708 5.748 1.516C5.456 1.32 5.076 1.222 4.608 1.222H2.76V9.778H4.482C5.03 9.778 5.468 9.678 5.796 9.478C6.124 9.274 6.364 8.988 6.516 8.62C6.668 8.248 6.752 7.808 6.768 7.3H6.99V10H0.336ZM4.662 6.712C4.642 6.444 4.574 6.218 4.458 6.034C4.342 5.846 4.19 5.704 4.002 5.608C3.814 5.508 3.606 5.458 3.378 5.458H2.454V5.236H3.378C3.606 5.236 3.814 5.192 4.002 5.104C4.19 5.016 4.342 4.884 4.458 4.708C4.574 4.528 4.642 4.304 4.662 4.036H4.878V6.712H4.662ZM11.2086 10.174C10.7086 10.174 10.2766 10.096 9.91256 9.94C9.54856 9.784 9.24256 9.572 8.99456 9.304L8.31056 10.12H8.11856V7.552H8.34056C8.41656 7.884 8.52656 8.194 8.67056 8.482C8.81856 8.77 9.00456 9.024 9.22856 9.244C9.45656 9.46 9.72456 9.632 10.0326 9.76C10.3446 9.884 10.7026 9.946 11.1066 9.946C11.5186 9.946 11.8746 9.874 12.1746 9.73C12.4746 9.586 12.7066 9.38 12.8706 9.112C13.0346 8.844 13.1166 8.52 13.1166 8.14C13.1166 7.796 13.0306 7.506 12.8586 7.27C12.6866 7.034 12.4566 6.83 12.1686 6.658C11.8806 6.486 11.5666 6.326 11.2266 6.178C10.8866 6.03 10.5446 5.874 10.2006 5.71C9.86056 5.546 9.54656 5.354 9.25856 5.134C8.97456 4.91 8.74656 4.638 8.57456 4.318C8.40256 3.998 8.31656 3.608 8.31656 3.148C8.31656 2.688 8.43056 2.29 8.65856 1.954C8.89056 1.614 9.19856 1.35 9.58256 1.162C9.97056 0.974 10.3946 0.879999 10.8546 0.879999C11.2386 0.879999 11.5926 0.941999 11.9166 1.066C12.2446 1.186 12.5286 1.37 12.7686 1.618L13.4466 0.879999H13.6326V3.412H13.4166C13.3126 2.908 13.1466 2.486 12.9186 2.146C12.6906 1.806 12.4106 1.552 12.0786 1.384C11.7466 1.212 11.3746 1.126 10.9626 1.126C10.4146 1.126 9.99856 1.258 9.71456 1.522C9.43056 1.786 9.28856 2.132 9.28856 2.56C9.28856 2.872 9.37456 3.136 9.54656 3.352C9.71856 3.564 9.94456 3.752 10.2246 3.916C10.5086 4.08 10.8186 4.236 11.1546 4.384C11.4906 4.532 11.8266 4.692 12.1626 4.864C12.5026 5.036 12.8126 5.24 13.0926 5.476C13.3726 5.708 13.5986 5.992 13.7706 6.328C13.9426 6.664 14.0286 7.072 14.0286 7.552C14.0286 8.08 13.9106 8.542 13.6746 8.938C13.4386 9.33 13.1086 9.634 12.6846 9.85C12.2646 10.066 11.7726 10.174 11.2086 10.174ZM18.0875 10.174C17.5875 10.174 17.1555 10.096 16.7915 9.94C16.4275 9.784 16.1215 9.572 15.8735 9.304L15.1895 10.12H14.9975V7.552H15.2195C15.2955 7.884 15.4055 8.194 15.5495 8.482C15.6975 8.77 15.8835 9.024 16.1075 9.244C16.3355 9.46 16.6035 9.632 16.9115 9.76C17.2235 9.884 17.5815 9.946 17.9855 9.946C18.3975 9.946 18.7535 9.874 19.0535 9.73C19.3535 9.586 19.5855 9.38 19.7495 9.112C19.9135 8.844 19.9955 8.52 19.9955 8.14C19.9955 7.796 19.9095 7.506 19.7375 7.27C19.5655 7.034 19.3355 6.83 19.0475 6.658C18.7595 6.486 18.4455 6.326 18.1055 6.178C17.7655 6.03 17.4235 5.874 17.0795 5.71C16.7395 5.546 16.4255 5.354 16.1375 5.134C15.8535 4.91 15.6255 4.638 15.4535 4.318C15.2815 3.998 15.1955 3.608 15.1955 3.148C15.1955 2.688 15.3095 2.29 15.5375 1.954C15.7695 1.614 16.0775 1.35 16.4615 1.162C16.8495 0.974 17.2735 0.879999 17.7335 0.879999C18.1175 0.879999 18.4715 0.941999 18.7955 1.066C19.1235 1.186 19.4075 1.37 19.6475 1.618L20.3255 0.879999H20.5115V3.412H20.2955C20.1915 2.908 20.0255 2.486 19.7975 2.146C19.5695 1.806 19.2895 1.552 18.9575 1.384C18.6255 1.212 18.2535 1.126 17.8415 1.126C17.2935 1.126 16.8775 1.258 16.5935 1.522C16.3095 1.786 16.1675 2.132 16.1675 2.56C16.1675 2.872 16.2535 3.136 16.4255 3.352C16.5975 3.564 16.8235 3.752 17.1035 3.916C17.3875 4.08 17.6975 4.236 18.0335 4.384C18.3695 4.532 18.7055 4.692 19.0415 4.864C19.3815 5.036 19.6915 5.24 19.9715 5.476C20.2515 5.708 20.4775 5.992 20.6495 6.328C20.8215 6.664 20.9075 7.072 20.9075 7.552C20.9075 8.08 20.7895 8.542 20.5535 8.938C20.3175 9.33 19.9875 9.634 19.5635 9.85C19.1435 10.066 18.6515 10.174 18.0875 10.174ZM21.6876 10V9.778H22.7676V1.222H21.6876V0.999999H28.2216V3.46H27.9996C27.9836 3.032 27.9036 2.65 27.7596 2.314C27.6156 1.974 27.3956 1.708 27.0996 1.516C26.8076 1.32 26.4276 1.222 25.9596 1.222H24.1116V9.778H25.8336C26.3816 9.778 26.8196 9.678 27.1476 9.478C27.4756 9.274 27.7156 8.988 27.8676 8.62C28.0196 8.248 28.1036 7.808 28.1196 7.3H28.3416V10H21.6876ZM26.0136 6.712C25.9936 6.444 25.9256 6.218 25.8096 6.034C25.6936 5.846 25.5416 5.704 25.3536 5.608C25.1656 5.508 24.9576 5.458 24.7296 5.458H23.8056V5.236H24.7296C24.9576 5.236 25.1656 5.192 25.3536 5.104C25.5416 5.016 25.6936 4.884 25.8096 4.708C25.9256 4.528 25.9936 4.304 26.0136 4.036H26.2296V6.712H26.0136ZM30.6221 0.999999V9.778H32.0321V10H29.1641V9.778H30.3881V1.222H29.1641V0.999999H30.6221ZM37.7741 0.999999V1.222H36.5141V10.12H36.2081L30.4601 0.999999H32.0741L36.2861 7.81V1.222H34.9061V0.999999H37.7741ZM41.9374 0.999999C42.8494 0.999999 43.6314 1.196 44.2834 1.588C44.9394 1.976 45.4434 2.51 45.7954 3.19C46.1514 3.866 46.3294 4.636 46.3294 5.5C46.3294 6.148 46.2234 6.746 46.0114 7.294C45.7994 7.842 45.4994 8.318 45.1114 8.722C44.7234 9.126 44.2594 9.44 43.7194 9.664C43.1834 9.888 42.5894 10 41.9374 10H38.4454V9.778H39.5254V1.222H38.4454V0.999999H41.9374ZM40.8694 9.778H41.9374C42.4654 9.778 42.9094 9.662 43.2694 9.43C43.6294 9.198 43.9174 8.882 44.1334 8.482C44.3494 8.078 44.5054 7.62 44.6014 7.108C44.6974 6.592 44.7454 6.056 44.7454 5.5C44.7454 4.944 44.6914 4.41 44.5834 3.898C44.4754 3.382 44.3094 2.924 44.0854 2.524C43.8614 2.12 43.5714 1.802 43.2154 1.57C42.8634 1.338 42.4374 1.222 41.9374 1.222H40.8694V9.778Z" fill="black"/>
</svg>
